<?xml version="1.0" encoding="UTF-8" standalone="no"?><!DOCTYPE svg PUBLIC "-//W3C//DTD SVG 1.1//EN" "http://www.w3.org/Graphics/SVG/1.1/DTD/svg11.dtd"><svg xmlns="http://www.w3.org/2000/svg" xmlns:xlink="http://www.w3.org/1999/xlink" version="1.1" width="1024" height="1024" viewBox="0 0 1020 1020" preserveAspectRatio="none">
<desc>Created with SVGMaker Editor 3.0.0</desc>
<defs>
</defs>
<g transform="matrix(1.31677 0 0 1.35222 510 510)">
<linearGradient id="SVGID_SVGID_468_1" gradientUnits="userSpaceOnUse" gradientTransform="matrix(1 0 0 1 121.36632 -0.15339)" x1="0" y1="145.98164381132167" x2="774.6231344236755" y2="164.6175983404266">
<stop offset="0%" style="stop-color:rgba(76,102,237,1);"/>
<stop offset="100%" style="stop-color:rgba(0,255,194,1);"/>
</linearGradient>
<path transform=" translate(-508.67789, -155.14623)" style="stroke-width: 0; stroke-linecap: round; fill: url(#SVGID_SVGID_468_1); fill-rule: evenodd" stroke-linecap="round" d="M 704.815 21.2948 L 752.7 71.646 L 793.9 22.5019 C 815.103 -2.7884 850.956 -7.6381 873.983 11.6675 C 897.01 30.9722 898.493 67.1226 877.29 92.413 L 828.17 151.003 L 878.41 203.831 C 901.149 227.742 901.932 263.913 880.155 284.623 C 858.381 305.33 822.295 302.732 799.554 278.82 L 757.812 234.926 L 715.453 285.451 C 694.255 310.736 658.402 315.586 635.372 296.279 C 612.346 276.974 610.866 240.825 632.066 215.537 L 682.342 155.569 L 625.963 96.2853 C 603.219 72.3704 602.436 36.199 624.21 15.4917 C 645.985 -5.2157 682.072 -2.6201 704.815 21.2948 Z M 431.965 163.528 L 355.384 29.0216 C 340.379 2.6666 308.76 -7.6194 284.764 6.0426 C 260.767 19.7056 253.475 52.1436 268.482 78.4996 L 383.016 279.667 C 393.668 298.378 412.697 308.99 431.426 308.681 C 450.216 309.183 469.405 298.678 480.208 279.967 L 595.953 79.4906 C 611.117 53.2256 604.019 20.7426 580.106 6.9356 C 556.192 -6.8714 524.513 3.2256 509.35 29.4896 L 431.965 163.528 Z M 216.07 30.7806 L 330.605 231.95 C 345.608 258.301 338.318 290.74 314.319 304.403 C 290.322 318.066 258.706 307.778 243.702 281.425 L 129.168 80.2579 C 114.163 53.9023 121.453 21.4637 145.45 7.8013 C 169.447 -5.8612 201.065 4.425 216.07 30.7806 Z"/>
</g>
</svg>